<svg xmlns="http://www.w3.org/2000/svg"  viewBox="0 0 64 64" width="64px" height="64px"><radialGradient id="HmR7yFzDwzQip~WPZtVBGa" cx="32" cy="5823.5" r="30.775" gradientTransform="translate(0 -5792)" gradientUnits="userSpaceOnUse"><stop offset="0" stop-color="#adecfd"/><stop offset=".193" stop-color="#b9effd"/><stop offset=".703" stop-color="#d5f6ff"/><stop offset="1" stop-color="#dff8ff"/></radialGradient><path fill="url(#HmR7yFzDwzQip~WPZtVBGa)" d="M59.106,20H60.5c2.168,0,3.892-1.998,3.422-4.243C63.579,14.122,62.054,13,60.384,13h-3.673 c-1.608,0-2.525-0.681-2.684-1.665C53.824,10.082,54.785,9,56,9h0.384c1.67,0,3.195-1.122,3.538-2.757 C60.392,3.998,58.668,2,56.5,2H34.006H32.5H8.614C6.944,2,5.42,3.122,5.078,4.757C4.608,7.002,6.332,9,8.5,9h1.394 c0.996,0,1.919,0.681,2.078,1.665C12.176,11.918,11.215,13,10,13H3.616c-1.67,0-3.195,1.122-3.538,2.757 C-0.392,18.002,1.332,20,3.5,20H4c3.314,0,6,2.686,6,6l0,0c0,3.314-2.686,6-6,6H3.616c-1.67,0-3.195,1.122-3.538,2.757 C-0.392,37.002,1.332,39,3.5,39h1.417c0.996,0,1.919,0.681,2.078,1.665C7.199,41.918,6.238,43,5.023,43H3.5 c-2.168,0-3.892,1.998-3.422,4.243C0.421,48.878,1.946,50,3.616,50H7.4c1.494,0,2.413,0.681,2.573,1.665 C10.176,52.918,9.215,54,8,54H6.616c-1.67,0-3.195,1.122-3.538,2.757C2.608,59.002,4.332,61,6.5,61h24.494H32.5h25.886 c1.67,0,3.195-1.122,3.537-2.757C62.392,55.998,60.668,54,58.5,54h-3.394c-0.996,0-1.919-0.681-2.078-1.665 C52.824,51.082,53.785,50,55,50h5.384c1.67,0,3.195-1.122,3.538-2.757C64.392,44.998,62.668,43,60.5,43H60c-3.314,0-6-2.686-6-6 l0,0c0-3.314,2.686-6,6-6h0.384c1.67,0,3.195-1.122,3.538-2.757C64.392,25.998,62.668,24,60.5,24H59 c-1.215,0-2.176-1.082-1.973-2.335C57.187,20.681,58.11,20,59.106,20z"/><linearGradient id="HmR7yFzDwzQip~WPZtVBGb" x1="40.5" x2="40.5" y1="40" y2="23" gradientUnits="userSpaceOnUse"><stop offset="0" stop-color="#155cdc"/><stop offset=".486" stop-color="#2383e4"/><stop offset="1" stop-color="#2fb3ee"/></linearGradient><circle cx="40.5" cy="31.5" r="8.5" fill="url(#HmR7yFzDwzQip~WPZtVBGb)"/><linearGradient id="HmR7yFzDwzQip~WPZtVBGc" x1="40.058" x2="40.058" y1="6" y2="23" gradientUnits="userSpaceOnUse"><stop offset="0" stop-color="#ff8769"/><stop offset=".214" stop-color="#ff887d"/><stop offset=".524" stop-color="#fd8896"/><stop offset=".793" stop-color="#fc89a5"/><stop offset=".989" stop-color="#fc89aa"/><stop offset="1" stop-color="#fc89aa"/></linearGradient><path fill="url(#HmR7yFzDwzQip~WPZtVBGc)" d="M31.115,23V6h9.444C45.238,6,49,9.852,49,14.53S45.238,23,40.56,23H31.115z"/><linearGradient id="HmR7yFzDwzQip~WPZtVBGd" x1="59.995" x2="59.995" y1="22" y2="5" gradientTransform="rotate(180 41.468 14)" gradientUnits="userSpaceOnUse"><stop offset="0" stop-color="#fd6b53"/><stop offset=".007" stop-color="#fd6b53"/><stop offset=".989" stop-color="#f96599"/><stop offset="1" stop-color="#f96599"/></linearGradient><path fill="url(#HmR7yFzDwzQip~WPZtVBGd)" d="M31.885,6v17H22.44C17.762,23,14,19.148,14,14.47S17.762,6,22.44,6H31.885z"/><linearGradient id="HmR7yFzDwzQip~WPZtVBGe" x1="59.937" x2="59.937" y1="5" y2="-12" gradientTransform="rotate(180 41.468 14)" gradientUnits="userSpaceOnUse"><stop offset="0" stop-color="#7c9eea"/><stop offset=".277" stop-color="#798ce6"/><stop offset=".737" stop-color="#7780e3"/><stop offset="1" stop-color="#7363dc"/></linearGradient><path fill="url(#HmR7yFzDwzQip~WPZtVBGe)" d="M32,23v17h-9.505C17.787,40,14,36.148,14,31.47S17.787,23,22.495,23H32z"/><linearGradient id="HmR7yFzDwzQip~WPZtVBGf" x1="23" x2="23" y1="40" y2="58" gradientUnits="userSpaceOnUse"><stop offset="0" stop-color="#00e49f"/><stop offset=".478" stop-color="#00da9e"/><stop offset="1" stop-color="#00ca9b"/></linearGradient><path fill="url(#HmR7yFzDwzQip~WPZtVBGf)" d="M22.977,58L22.977,58C18.019,58,14,53.981,14,49.024l0,0C14,44.066,17.771,40,22.728,40H32 v8.976C32,53.934,27.934,58,22.977,58z"/></svg>